<?xml version="1.0" encoding="UTF-8" standalone="no"?>
<!-- Created with Inkscape (http://www.inkscape.org/) -->

<svg
   width="210mm"
   height="297mm"
   viewBox="0 0 210 297"
   version="1.1"
   id="svg5"
   inkscape:version="1.2.1 (9c6d41e410, 2022-07-14)"
   sodipodi:docname="aaa.svg"
   xmlns:inkscape="http://www.inkscape.org/namespaces/inkscape"
   xmlns:sodipodi="http://sodipodi.sourceforge.net/DTD/sodipodi-0.dtd"
   xmlns="http://www.w3.org/2000/svg"
   xmlns:svg="http://www.w3.org/2000/svg">
  <sodipodi:namedview
     id="namedview7"
     pagecolor="#ffffff"
     bordercolor="#000000"
     borderopacity="0.25"
     inkscape:showpageshadow="2"
     inkscape:pageopacity="0.0"
     inkscape:pagecheckerboard="0"
     inkscape:deskcolor="#d1d1d1"
     inkscape:document-units="mm"
     showgrid="false"
     inkscape:zoom="0.74564394"
     inkscape:cx="396.97231"
     inkscape:cy="123.38329"
     inkscape:window-width="1920"
     inkscape:window-height="1017"
     inkscape:window-x="-8"
     inkscape:window-y="-8"
     inkscape:window-maximized="1"
     inkscape:current-layer="layer1" />
  <defs
     id="defs2">
    <inkscape:perspective
       sodipodi:type="inkscape:persp3d"
       inkscape:vp_x="0 : 148.5 : 1"
       inkscape:vp_y="0 : 1000 : 0"
       inkscape:vp_z="124.48387 : 127.91935 : 1"
       inkscape:persp3d-origin="105 : 99 : 1"
       id="perspective579" />
  </defs>
  <g
     inkscape:label="Capa 1"
     inkscape:groupmode="layer"
     id="layer1">
    <path
       id="path269"
       style="fill:#ffd5d5;stroke-width:0.547628"
       d="m 106.89005,17.23934 a 86.478848,139.17078 0 0 0 -86.479352,139.17009 86.478848,139.17078 0 0 0 86.479352,139.17128 86.478848,139.17078 0 0 0 59.15829,-37.67176 c 0.20205,-1.41821 0.63006,-1.89811 1.17842,-1.81368 A 86.478848,139.17078 0 0 0 193.36841,156.40943 86.478848,139.17078 0 0 0 106.89005,17.23934 Z" />
    <path
       style="fill:#ffffff;stroke-width:0.547628"
       id="path433"
       sodipodi:type="arc"
       sodipodi:cx="73.654617"
       sodipodi:cy="109.48935"
       sodipodi:rx="19.330564"
       sodipodi:ry="14.314709"
       sodipodi:start="0"
       sodipodi:end="6.2785323"
       sodipodi:arc-type="slice"
       d="m 92.985182,109.48935 a 19.330564,14.314709 0 0 1 -19.308078,14.3147 19.330564,14.314709 0 0 1 -19.352999,-14.2814 19.330564,14.314709 0 0 1 19.263054,-14.347922 19.330564,14.314709 0 0 1 19.397814,14.248012 l -19.330356,0.0666 z" />
    <path
       style="fill:#ffffff;stroke-width:0.547628"
       id="path433-9"
       sodipodi:type="arc"
       sodipodi:cx="143.85509"
       sodipodi:cy="108.69409"
       sodipodi:rx="19.330564"
       sodipodi:ry="14.314709"
       sodipodi:start="0"
       sodipodi:end="6.2785323"
       sodipodi:arc-type="slice"
       d="m 163.18565,108.69409 a 19.330564,14.314709 0 0 1 -19.30808,14.3147 19.330564,14.314709 0 0 1 -19.35299,-14.2814 19.330564,14.314709 0 0 1 19.26305,-14.34792 19.330564,14.314709 0 0 1 19.39781,14.24802 l -19.33035,0.0666 z" />
    <path
       style="fill:#ffaaaa;stroke-width:0.520041"
       d="M 97.054777,144.14714 V 120.481 l 3.391333,-5.02008 6.1044,-3.58578 4.06959,1.43431 7.46091,4.30292 5.42614,13.62596 2.03479,20.08037 2.03479,20.7975 5.42612,2.86861 2.71308,6.45442 -2.03482,6.4544 -11.53052,2.86862 -4.74784,-2.86862 -6.1044,0.71716 -8.81745,3.58575 -3.391315,-3.58575 -6.782667,-0.71716 -3.391325,-2.15147 v -11.47448 l 2.713069,-4.30296 3.39132,-8.60585 0.678277,-9.32301 z"
       id="path1534" />
    <ellipse
       style="fill:#ffaaaa;stroke-width:0.547628"
       id="path1644"
       cx="105.19398"
       cy="258.99854"
       rx="42.730724"
       ry="11.928925" />
    <path
       style="fill:#552200;stroke-width:0.547628"
       id="path1646"
       sodipodi:type="arc"
       sodipodi:cx="188.28149"
       sodipodi:cy="127.38275"
       sodipodi:rx="20.008831"
       sodipodi:ry="82.309578"
       sodipodi:start="0"
       sodipodi:end="6.2806829"
       sodipodi:arc-type="slice"
       d="m 208.29033,127.38275 a 20.008831,82.309578 0 0 1 -19.99632,82.30956 20.008831,82.309578 0 0 1 -20.02133,-82.20657 20.008831,82.309578 0 0 1 19.97126,-82.412422 20.008831,82.309578 0 0 1 20.04632,82.103462 l -20.00877,0.20597 z" />
    <path
       style="fill:#552200;stroke-width:0.547628"
       id="path1754"
       sodipodi:type="arc"
       sodipodi:cx="22.784718"
       sodipodi:cy="130.16614"
       sodipodi:rx="21.365362"
       sodipodi:ry="87.478775"
       sodipodi:start="0"
       sodipodi:end="6.2806829"
       sodipodi:arc-type="slice"
       d="M 44.15008,130.16614 A 21.365362,87.478775 0 0 1 22.798084,217.6449 21.365362,87.478775 0 0 1 1.4193721,130.27559 21.365362,87.478775 0 0 1 22.744619,42.687517 21.365362,87.478775 0 0 1 44.150013,129.94723 l -21.365295,0.21891 z" />
    <path
       style="fill:#552200;stroke-width:0.547628"
       id="path1756"
       sodipodi:type="arc"
       sodipodi:cx="105.87224"
       sodipodi:cy="49.049465"
       sodipodi:rx="88.852768"
       sodipodi:ry="46.920437"
       sodipodi:start="0"
       sodipodi:end="6.2806829"
       sodipodi:arc-type="slice"
       d="M 194.72501,49.049465 A 88.852768,46.920437 0 0 1 105.92782,95.969893 88.852768,46.920437 0 0 1 17.01954,49.108172 88.852768,46.920437 0 0 1 105.70548,2.129111 a 88.852768,46.920437 0 0 1 89.01925,46.80294 l -88.85249,0.117414 z" />
    <path
       style="fill:#00ffff;stroke-width:0.547628"
       id="path1764"
       sodipodi:type="arc"
       sodipodi:cx="77.385086"
       sodipodi:cy="115.85142"
       sodipodi:rx="9.4957161"
       sodipodi:ry="9.5431385"
       sodipodi:start="0"
       sodipodi:end="6.2806829"
       sodipodi:arc-type="slice"
       d="m 86.880802,115.85142 a 9.4957161,9.5431385 0 0 1 -9.489775,9.54313 9.4957161,9.5431385 0 0 1 -9.50165,-9.53119 9.4957161,9.5431385 0 0 1 9.477887,-9.55506 9.4957161,9.5431385 0 0 1 9.513508,9.51924 l -9.495686,0.0239 z" />
    <path
       style="fill:#00ffff;stroke-width:0.547628"
       id="path1764-4"
       sodipodi:type="arc"
       sodipodi:cx="141.14206"
       sodipodi:cy="115.85142"
       sodipodi:rx="9.4957161"
       sodipodi:ry="9.5431385"
       sodipodi:start="0"
       sodipodi:end="6.2806829"
       sodipodi:arc-type="slice"
       d="m 150.63778,115.85142 a 9.4957161,9.5431385 0 0 1 -9.48978,9.54313 9.4957161,9.5431385 0 0 1 -9.50165,-9.53119 9.4957161,9.5431385 0 0 1 9.47789,-9.55506 9.4957161,9.5431385 0 0 1 9.51351,9.51924 l -9.49569,0.0239 z" />
    <path
       id="path2019"
       style="fill:#000000;stroke-width:0.928887"
       d="m 96.146801,251.61779 c -1.4177,0.0157 -2.818727,0.13896 -4.197043,0.42041 -9.357163,1.91119 -18.711775,4.47223 -28.129979,5.95763 l 82.535401,0.96011 c 0.003,-0.0693 0.004,-0.13782 0.009,-0.20506 -1.54695,-0.10874 -3.03452,-0.33483 -4.40629,-0.75511 -3.54525,-1.08618 -6.91972,-3.10424 -10.41769,-4.46823 -4.83159,-1.88402 -11.68146,0 -16.66921,0 -6.13626,0 -12.5804,-1.97469 -18.723727,-1.90981 z" />
    <path
       style="fill:#ffaaaa;stroke-width:0.673215"
       id="path2220"
       sodipodi:type="arc"
       sodipodi:cx="97.054802"
       sodipodi:cy="182.65343"
       sodipodi:rx="12.208779"
       sodipodi:ry="11.133663"
       sodipodi:start="0"
       sodipodi:end="6.2806829"
       sodipodi:arc-type="slice"
       d="m 109.26358,182.65343 a 12.208779,11.133663 0 0 1 -12.20114,11.13366 12.208779,11.133663 0 0 1 -12.216408,-11.11973 12.208779,11.133663 0 0 1 12.185856,-11.14758 12.208779,11.133663 0 0 1 12.231652,11.10579 l -12.208738,0.0279 z" />
    <path
       style="fill:#ffaaaa;stroke-width:0.673215"
       id="path2220-7"
       sodipodi:type="arc"
       sodipodi:cx="124.86368"
       sodipodi:cy="182.65343"
       sodipodi:rx="12.208779"
       sodipodi:ry="11.133663"
       sodipodi:start="0"
       sodipodi:end="6.2806829"
       sodipodi:arc-type="slice"
       d="m 137.07246,182.65343 a 12.208779,11.133663 0 0 1 -12.20114,11.13366 12.208779,11.133663 0 0 1 -12.21641,-11.11973 12.208779,11.133663 0 0 1 12.18585,-11.14758 12.208779,11.133663 0 0 1 12.23166,11.10579 l -12.20874,0.0279 z" />
    <path
       style="fill:#ffaaaa;stroke-width:0.547628"
       id="path2249"
       sodipodi:type="arc"
       sodipodi:cx="111.63747"
       sodipodi:cy="192.19652"
       sodipodi:rx="9.8348494"
       sodipodi:ry="6.3620934"
       sodipodi:start="0"
       sodipodi:end="6.2806829"
       sodipodi:arc-type="slice"
       d="m 121.47232,192.19652 a 9.8348494,6.3620934 0 0 1 -9.8287,6.36209 9.8348494,6.3620934 0 0 1 -9.841,-6.35413 9.8348494,6.3620934 0 0 1 9.81639,-6.37004 9.8348494,6.3620934 0 0 1 9.85327,6.34616 l -9.83481,0.0159 z" />
    <path
       style="fill:#ffaaaa;stroke-width:0.658587"
       d="m 136.39417,181.85816 -14.64435,-44.53464 -2.31228,42.51033 z"
       id="path2257" />
  </g>
</svg>
