<?xml version="1.0" encoding="UTF-8" standalone="no"?>
<!-- Created with Inkscape (http://www.inkscape.org/) -->

<svg
   width="210mm"
   height="297mm"
   viewBox="0 0 210 297"
   version="1.1"
   id="svg5"
   sodipodi:docname="bbb.svg"
   inkscape:version="1.2.1 (9c6d41e410, 2022-07-14)"
   xmlns:inkscape="http://www.inkscape.org/namespaces/inkscape"
   xmlns:sodipodi="http://sodipodi.sourceforge.net/DTD/sodipodi-0.dtd"
   xmlns:xlink="http://www.w3.org/1999/xlink"
   xmlns="http://www.w3.org/2000/svg"
   xmlns:svg="http://www.w3.org/2000/svg">
  <sodipodi:namedview
     id="namedview522"
     pagecolor="#ffffff"
     bordercolor="#000000"
     borderopacity="0.25"
     inkscape:showpageshadow="2"
     inkscape:pageopacity="0.0"
     inkscape:pagecheckerboard="0"
     inkscape:deskcolor="#d1d1d1"
     inkscape:document-units="mm"
     showgrid="false"
     inkscape:zoom="0.74564394"
     inkscape:cx="398.984"
     inkscape:cy="561.9304"
     inkscape:window-width="1920"
     inkscape:window-height="1017"
     inkscape:window-x="-8"
     inkscape:window-y="-8"
     inkscape:window-maximized="1"
     inkscape:current-layer="svg5" />
  <defs
     id="defs2">
    <linearGradient
       xlink:href="#linearGradient2919"
       id="linearGradient2921"
       x1="110.70968"
       y1="64.58065"
       x2="123.48387"
       y2="67.774193"
       gradientUnits="userSpaceOnUse"
       gradientTransform="translate(-2.8387207,-7.8064527)" />
    <linearGradient
       id="linearGradient2919">
      <stop
         style="stop-color:#1a1a1a;stop-opacity:1;"
         offset="0"
         id="stop2915" />
      <stop
         style="stop-color:#1a1a1a;stop-opacity:0;"
         offset="1"
         id="stop2917" />
    </linearGradient>
    <linearGradient
       xlink:href="#linearGradient2919"
       id="linearGradient2921-3"
       x1="110.70968"
       y1="64.58065"
       x2="123.48387"
       y2="67.774193"
       gradientUnits="userSpaceOnUse"
       gradientTransform="translate(-2.1290437,83.032257)" />
  </defs>
  <g
     id="layer1">
    <path
       id="path269"
       style="fill:#ffd5d5;stroke-width:0.547628"
       d="m 106.89005,17.23934 a 86.478848,139.17078 0 0 0 -86.479352,139.17009 86.478848,139.17078 0 0 0 86.479352,139.17128 86.478848,139.17078 0 0 0 59.15829,-37.67176 c 0.20205,-1.41821 0.63006,-1.89811 1.17842,-1.81368 A 86.478848,139.17078 0 0 0 193.36841,156.40943 86.478848,139.17078 0 0 0 106.89005,17.23934 Z" />
    <path
       style="fill:#241c1c;stroke-width:0.131933"
       id="path433-9"
       d="m 163.18565,109.04893 a 19.330564,0.83083779 0 0 1 -19.30808,0.83083 19.330564,0.83083779 0 0 1 -19.35299,-0.8289 19.330564,0.83083779 0 0 1 19.26305,-0.83277 19.330564,0.83083779 0 0 1 19.39781,0.82697 l -19.33035,0.004 z" />
    <path
       style="fill:#241c1c;stroke-width:0.131933"
       id="path433-9-1"
       d="m 89.588636,108.58064 a 19.330564,0.83083779 0 0 1 -19.308078,0.83084 19.330564,0.83083779 0 0 1 -19.352998,-0.8289 19.330564,0.83083779 0 0 1 19.263053,-0.83277 19.330564,0.83083779 0 0 1 19.397814,0.82697 l -19.330355,0.004 z" />
    <path
       style="fill:#ffaaaa;stroke-width:0.520041"
       d="M 97.054777,144.14714 V 120.481 l 3.391333,-5.02008 6.1044,-3.58578 4.06959,1.43431 7.46091,4.30292 5.42614,13.62596 2.03479,20.08037 2.03479,20.7975 5.42612,2.86861 2.71308,6.45442 -2.03482,6.4544 -11.53052,2.86862 -4.74784,-2.86862 -6.1044,0.71716 -8.81745,3.58575 -3.391315,-3.58575 -6.782667,-0.71716 -3.391325,-2.15147 v -11.47448 l 2.713069,-4.30296 3.39132,-8.60585 0.678277,-9.32301 z"
       id="path1534" />
    <ellipse
       style="fill:#ffaaaa;stroke-width:0.547628"
       id="path1644"
       cx="105.19398"
       cy="258.99854"
       rx="42.730724"
       ry="11.928925" />
    <path
       style="fill:#552200;stroke-width:0.547628"
       id="path1646"
       d="m 208.29033,127.38275 a 20.008831,82.309578 0 0 1 -19.99632,82.30956 20.008831,82.309578 0 0 1 -20.02133,-82.20657 20.008831,82.309578 0 0 1 19.97126,-82.412422 20.008831,82.309578 0 0 1 20.04632,82.103462 l -20.00877,0.20597 z" />
    <path
       style="fill:#552200;stroke-width:0.547628"
       id="path1754"
       d="M 44.15008,130.16614 A 21.365362,87.478775 0 0 1 22.798084,217.6449 21.365362,87.478775 0 0 1 1.4193721,130.27559 21.365362,87.478775 0 0 1 22.744619,42.687517 21.365362,87.478775 0 0 1 44.150013,129.94723 l -21.365295,0.21891 z" />
    <path
       style="fill:#552200;stroke-width:0.547628"
       id="path1756"
       d="M 194.72501,49.049465 A 88.852768,46.920437 0 0 1 105.92782,95.969893 88.852768,46.920437 0 0 1 17.01954,49.108172 88.852768,46.920437 0 0 1 105.70548,2.129111 a 88.852768,46.920437 0 0 1 89.01925,46.80294 l -88.85249,0.117414 z" />
    <path
       id="path2019"
       style="fill:#000000;stroke-width:0.928887"
       d="m 96.146801,251.61779 c -1.4177,0.0157 -2.818727,0.13896 -4.197043,0.42041 -9.357163,1.91119 -18.711775,4.47223 -28.129979,5.95763 l 82.535401,0.96011 c 0.003,-0.0693 0.004,-0.13782 0.009,-0.20506 -1.54695,-0.10874 -3.03452,-0.33483 -4.40629,-0.75511 -3.54525,-1.08618 -6.91972,-3.10424 -10.41769,-4.46823 -4.83159,-1.88402 -11.68146,0 -16.66921,0 -6.13626,0 -12.5804,-1.97469 -18.723727,-1.90981 z" />
    <path
       style="fill:#ffaaaa;stroke-width:0.673215"
       id="path2220"
       d="m 109.26358,182.65343 a 12.208779,11.133663 0 0 1 -12.20114,11.13366 12.208779,11.133663 0 0 1 -12.216408,-11.11973 12.208779,11.133663 0 0 1 12.185856,-11.14758 12.208779,11.133663 0 0 1 12.231652,11.10579 l -12.208738,0.0279 z" />
    <path
       style="fill:#ffaaaa;stroke-width:0.673215"
       id="path2220-7"
       d="m 137.07246,182.65343 a 12.208779,11.133663 0 0 1 -12.20114,11.13366 12.208779,11.133663 0 0 1 -12.21641,-11.11973 12.208779,11.133663 0 0 1 12.18585,-11.14758 12.208779,11.133663 0 0 1 12.23166,11.10579 l -12.20874,0.0279 z" />
    <path
       style="fill:#ffaaaa;stroke-width:0.547628"
       id="path2249"
       d="m 121.47232,192.19652 a 9.8348494,6.3620934 0 0 1 -9.8287,6.36209 9.8348494,6.3620934 0 0 1 -9.841,-6.35413 9.8348494,6.3620934 0 0 1 9.81639,-6.37004 9.8348494,6.3620934 0 0 1 9.85327,6.34616 l -9.83481,0.0159 z" />
    <path
       style="fill:#ffaaaa;stroke-width:0.658587"
       d="m 136.39417,181.85816 -14.64435,-44.53464 -2.31228,42.51033 z"
       id="path2257" />
  </g>
  <path
     style="fill:#ff0000;stroke-width:0.264583"
     id="path3393"
     d="m 81.967742,42.935484 a 1.4193548,1.4193548 0 0 1 -1.418467,1.419354 1.4193548,1.4193548 0 0 1 -1.420241,-1.417578 1.4193548,1.4193548 0 0 1 1.416689,-1.421129 1.4193548,1.4193548 0 0 1 1.422015,1.415802 l -1.419351,0.0036 z" />
  <path
     style="fill:#999999;stroke-width:0.264583"
     id="path2691"
     d="M 121.17742,57.83871 A 16.145161,15.258064 0 0 1 105.04236,73.096772 16.145161,15.258064 0 0 1 88.887109,57.8578 16.145161,15.258064 0 0 1 105.00196,42.580672 16.145161,15.258064 0 0 1 121.17737,57.800528 l -16.14511,0.03818 z" />
  <path
     style="fill:url(#linearGradient2921);fill-opacity:1;stroke-width:0.264583"
     id="path2797"
     d="m 119.22581,57.661291 c 0,7.541587 -6.42862,13.656573 -14.36198,13.66129 -7.933356,0.0047 -14.370028,-6.102616 -14.379951,-13.6442 -0.0099,-7.541583 6.410649,-13.664211 14.343991,-13.67836 7.93334,-0.01415 14.37804,6.085521 14.39789,13.62708 l -14.37092,-1.030326 z"
     sodipodi:nodetypes="csssccc" />
  <path
     style="fill:#552200;stroke-width:0.264583"
     id="path641"
     sodipodi:type="arc"
     sodipodi:cx="121.53226"
     sodipodi:cy="56.774193"
     sodipodi:rx="8.3387098"
     sodipodi:ry="23.419355"
     sodipodi:start="0"
     sodipodi:end="6.2806829"
     sodipodi:arc-type="slice"
     d="m 129.87097,56.774193 a 8.3387098,23.419355 0 0 1 -8.3335,23.419351 8.3387098,23.419355 0 0 1 -8.34392,-23.390049 8.3387098,23.419355 0 0 1 8.32306,-23.448616 8.3387098,23.419355 0 0 1 8.35433,23.360709 l -8.33868,0.05861 z" />
  <path
     style="fill:#552200;stroke-width:0.264583"
     id="path695"
     sodipodi:type="arc"
     sodipodi:cx="72.564514"
     sodipodi:cy="40.629032"
     sodipodi:rx="8.3387098"
     sodipodi:ry="10.112903"
     sodipodi:start="0"
     sodipodi:end="6.2806829"
     sodipodi:arc-type="slice"
     d="m 80.903224,40.629032 a 8.3387098,10.112903 0 0 1 -8.333493,10.112901 8.3387098,10.112903 0 0 1 -8.34392,-10.100248 8.3387098,10.112903 0 0 1 8.323053,-10.125538 8.3387098,10.112903 0 0 1 8.354334,10.087579 l -8.338684,0.02531 z" />
  <path
     style="fill:#552200;stroke-width:0.264583"
     id="path697"
     sodipodi:type="arc"
     sodipodi:cx="89.596771"
     sodipodi:cy="58.016129"
     sodipodi:rx="14.725806"
     sodipodi:ry="14.016127"
     sodipodi:start="0"
     sodipodi:end="6.2806829"
     sodipodi:arc-type="slice"
     d="M 104.32258,58.016129 A 14.725806,14.016127 0 0 1 89.605984,72.032252 14.725806,14.016127 0 0 1 74.870977,58.033666 14.725806,14.016127 0 0 1 89.569134,44.000027 14.725806,14.016127 0 0 1 104.32253,57.981055 l -14.725759,0.03507 z" />
  <path
     style="fill:#552200;stroke-width:0.264583"
     id="path699"
     sodipodi:type="arc"
     sodipodi:cx="98.112907"
     sodipodi:cy="40.274193"
     sodipodi:rx="2.6612906"
     sodipodi:ry="18.629032"
     sodipodi:start="0"
     sodipodi:end="6.2806829"
     sodipodi:arc-type="slice"
     d="m 100.7742,40.274193 a 2.6612906,18.629032 0 0 1 -2.659628,18.629028 2.6612906,18.629032 0 0 1 -2.662953,-18.605719 2.6612906,18.629032 0 0 1 2.656294,-18.652309 2.6612906,18.629032 0 0 1 2.666277,18.582382 l -2.661283,0.04662 z" />
  <path
     style="fill:#552200;stroke-width:0.264583"
     id="path701"
     sodipodi:type="arc"
     sodipodi:cx="98.467735"
     sodipodi:cy="77.354836"
     sodipodi:rx="10.467741"
     sodipodi:ry="10.645162"
     sodipodi:start="0"
     sodipodi:end="6.2806829"
     sodipodi:arc-type="slice"
     d="M 108.93548,77.354836 A 10.467741,10.645162 0 0 1 98.474284,87.999995 10.467741,10.645162 0 0 1 88.000002,77.368155 10.467741,10.645162 0 0 1 98.448089,66.709693 10.467741,10.645162 0 0 1 108.93544,77.328197 l -10.467705,0.02664 z" />
  <path
     style="fill:#552200;stroke-width:0.264583"
     id="path703"
     sodipodi:type="arc"
     sodipodi:cx="101.48387"
     sodipodi:cy="67.064514"
     sodipodi:rx="3.1935482"
     sodipodi:ry="14.548388"
     sodipodi:start="0"
     sodipodi:end="6.2806829"
     sodipodi:arc-type="slice"
     d="m 104.67742,67.064514 a 3.1935482,14.548388 0 0 1 -3.19155,14.548385 3.1935482,14.548388 0 0 1 -3.195544,-14.530182 3.1935482,14.548388 0 0 1 3.187554,-14.566565 3.1935482,14.548388 0 0 1 3.19953,14.511956 l -3.19354,0.03641 z" />
  <path
     style="fill:#552200;stroke-width:0.264583"
     id="path705"
     sodipodi:type="arc"
     sodipodi:cx="103.08064"
     sodipodi:cy="42.048386"
     sodipodi:rx="3.3709674"
     sodipodi:ry="10.112903"
     sodipodi:start="0"
     sodipodi:end="6.2806829"
     sodipodi:arc-type="slice"
     d="m 106.45161,42.048386 a 3.3709674,10.112903 0 0 1 -3.36886,10.1129 3.3709674,10.112903 0 0 1 -3.373072,-10.100247 3.3709674,10.112903 0 0 1 3.364642,-10.125538 3.3709674,10.112903 0 0 1 3.37728,10.087578 l -3.37096,0.02531 z" />
  <path
     style="fill:#552200;stroke-width:0.264583"
     id="path707"
     sodipodi:type="arc"
     sodipodi:cx="99.532257"
     sodipodi:cy="53.048389"
     sodipodi:rx="3.0161288"
     sodipodi:ry="9.7580643"
     sodipodi:start="0"
     sodipodi:end="6.2794817"
     sodipodi:arc-type="arc"
     d="m 102.54839,53.048389 a 3.0161288,9.7580643 0 0 1 -3.01334,9.758061 3.0161288,9.7580643 0 0 1 -3.018917,-9.739991 3.0161288,9.7580643 0 0 1 3.007746,-9.776096 3.0161288,9.7580643 0 0 1 3.024491,9.721886"
     sodipodi:open="true" />
</svg>
